<?xml version="1.0" encoding="UTF-8"?><svg id="Logo_Text" xmlns="http://www.w3.org/2000/svg" viewBox="0 0 4092 1024"><defs><style>.cls-1{fill:#fff;}</style></defs><g id="Logo"><g id="Text"><path class="cls-1" d="m2027.86,498.56c-3.72,0-6.88,2.6-7.56,6.33-.57,3.27-1.01,7.34-1.24,12.4-.12,2.93-.12,5.64,0,8.02.22,5.07.67,9.24,1.24,12.4.68,3.72,3.84,6.33,7.56,6.33h165.41c14.78,0,26.85-12.07,26.85-26.75v-.9c0-26.4-5.87-49.76-17.71-69.95-11.84-20.32-28.43-36-49.64-47.16-21.21-11.29-45.48-16.82-72.67-16.82-1.47,0-2.7,0-4.06.11-2.03,0-4.17,0-6.09.11h-.11c-24.04,1.36-45.7,7-64.54,17.04-21.89,11.62-38.71,27.88-50.78,49.09-6.2,10.94-10.71,22.57-13.64,35.21-.69,2.71-1.24,5.53-1.7,8.35-1.69,9.59-2.6,19.86-2.6,30.46,0,13.43,1.35,26.18,4.29,38.02.67,2.82,1.46,5.53,2.26,8.12,2.81,9.83,7,18.95,11.96,27.65,12.3,21.21,29.33,37.58,51.11,49.42,21.78,11.62,46.38,17.39,73.91,17.39,33.85,0,62.16-7.91,84.97-23.82,22.78-16.02,38.58-36.55,47.26-61.49h-64.3c-13.2,25.27-35.78,38.02-67.93,38.02-9.25,0-18.06-1.24-26.18-3.49-2.03-.56-4.06-1.36-6.09-2.15-13.2-4.85-24.71-13.2-34.3-24.48-8.23-9.81-11.96-22.22-14.44-34.63-.12-.24-.12-.56-.12-.78-.11-.12-.11-.47-.11-.58-5.76-33.51.67-58.33,1.92-62.51.67-2.82,1.58-5.64,2.6-8.23,4.4-12.3,11.5-22.56,21.43-30.81,10.38-8.68,22.11-14.43,35.43-16.92,5.42-1.24,11.28-1.7,17.26-1.7,22.69,0,41.76,6.22,56.99,18.84,15.34,12.42,23.13,29.11,23.58,49.87h-130.21Z"/><path class="cls-1" d="m1718.61,498.54c-3.72,0-6.89,2.59-7.56,6.31-.57,3.28-1.02,7.33-1.24,12.42-.11,2.93-.11,5.64,0,8,.22,5.09.67,9.25,1.24,12.42.67,3.73,3.84,6.32,7.56,6.32h165.41c14.78,0,26.86-12.08,26.86-26.73v-.9c0-26.4-5.87-49.76-17.72-69.96-11.84-20.31-28.43-36-49.64-47.17-21.21-11.28-45.47-16.82-72.67-16.82-1.47,0-2.7,0-4.06.13-2.03,0-4.17,0-6.1.11h-.11c-24.03,1.36-45.69,6.99-64.53,17.04-21.89,11.61-38.71,27.86-50.78,49.08-6.21,10.94-10.72,22.56-13.65,35.19-.68,2.72-1.25,5.53-1.7,8.36-1.7,9.59-2.6,19.86-2.6,30.47,0,13.42,1.36,26.17,4.29,38.02.68,2.82,1.47,5.53,2.25,8.13,2.82,9.8,7,18.95,11.96,27.63,12.31,21.22,29.34,37.57,51.12,49.43,21.77,11.61,46.36,17.37,73.9,17.37,33.85,0,62.17-7.89,84.96-23.8,22.79-16.02,38.59-36.56,47.28-61.49h-64.32c-13.2,25.26-35.76,38.02-67.92,38.02-9.25,0-18.05-1.24-26.17-3.51-2.03-.56-4.07-1.35-6.1-2.13-13.2-4.85-24.7-13.2-34.3-24.49-8.23-9.82-11.96-22.23-14.44-34.64-.12-.22-.12-.56-.12-.79-.11-.12-.11-.44-.11-.57-5.75-33.5.68-58.33,1.92-62.51.67-2.82,1.58-5.64,2.59-8.24,4.4-12.3,11.51-22.56,21.44-30.8,10.38-8.69,22.11-14.45,35.43-16.93,5.42-1.24,11.28-1.68,17.26-1.68,22.68,0,41.75,6.19,56.98,18.84,15.35,12.4,23.13,29.11,23.59,49.87h-130.21Z"/><path class="cls-1" d="m939.15,651.86c-18.64-7.72-33.37-18.27-44.22-31.61-10.84-13.33-16.64-28.23-17.35-44.69h64c1.08,11.53,7.14,21.16,18.18,28.89,11.04,7.74,24.86,11.61,41.49,11.61s30.82-3.04,40.41-9.15c9.57-6.1,14.36-13.91,14.36-23.47,0-10.2-5.33-17.79-15.99-22.72-10.67-4.94-27.58-10.36-50.72-16.3-22.42-5.6-40.67-11.03-54.78-16.3-14.09-5.27-26.3-13.33-36.61-24.22-10.3-10.87-15.45-25.18-15.45-42.97,0-14.47,4.68-27.73,14.09-39.75,9.41-12.01,22.88-21.49,40.42-28.41,17.54-6.91,37.7-10.38,60.47-10.38,33.99,0,61.37,7.84,82.17,23.47,20.79,15.65,31.91,36.98,33.35,63.98h-61.83c-1.07-12.19-6.49-21.91-16.27-29.14-9.76-7.24-22.97-10.88-39.59-10.88s-28.75,2.81-37.44,8.4c-8.66,5.6-13.01,13.02-13.01,22.23,0,7.25,2.9,13.33,8.68,18.28,5.79,4.94,12.84,8.8,21.16,11.6,8.31,2.8,20.61,6.35,36.89,10.62,21.69,5.27,39.49,10.63,53.42,16.05,13.93,5.44,25.95,13.41,36.07,23.96,10.11,10.54,15.38,24.54,15.73,41.99,0,15.47-4.71,29.31-14.1,41.48-9.41,12.2-22.69,21.75-39.87,28.67-17.18,6.91-37.34,10.35-60.48,10.35s-44.57-3.87-63.18-11.6Z"/><path class="cls-1" d="m1157.34,448.84c12.01-21.24,28.64-37.62,49.89-49.14,21.24-11.52,45.62-17.3,73.14-17.3,34.82,0,63.64,7.84,86.46,23.47,22.82,15.65,38.22,37.96,46.24,66.93h-64.26c-5.23-13.5-13.59-24.03-25.08-31.61-11.49-7.59-25.95-11.37-43.36-11.37-24.39,0-43.8,8.15-58.26,24.46-14.46,16.3-21.68,39.11-21.68,68.41s7.22,52.21,21.68,68.67c14.46,16.46,33.86,24.7,58.26,24.7,34.48,0,57.29-14.33,68.44-42.99h64.26c-8.37,27.67-24.04,49.64-47.02,65.95-22.99,16.3-51.55,24.44-85.68,24.44-27.52,0-51.9-5.84-73.14-17.53-21.25-11.69-37.88-28.15-49.89-49.4-12.02-21.24-18.03-45.85-18.03-73.85s6.01-52.6,18.03-73.85Z"/><path class="cls-1" d="m1553.86,394.02c14.45-7.73,31.6-11.61,51.46-11.61v58.3h-15.15c-23.34,0-41.01,5.6-53.03,16.79-12.02,11.19-18.03,30.62-18.03,58.28v143.26h-59.55v-272.18h59.55v39.51c8.71-13.81,20.29-24.6,34.75-32.35Z"/><path class="cls-1" d="m2471.74,395.75c17.94,8.88,31.96,22.06,42.07,39.51,10.08,17.45,15.14,38.52,15.14,63.22v160.54h-59.03v-152.15c0-24.37-6.44-43.05-19.32-56.06-12.9-13-30.49-19.51-52.77-19.51s-39.97,6.51-53.04,19.51c-13.05,13.01-19.58,31.69-19.58,56.06v152.15h-59.56v-272.18h59.56v31.12c9.75-11.2,22.2-19.93,37.35-26.19,15.15-6.24,31.26-9.39,48.33-9.39,22.64,0,42.92,4.45,60.85,13.35Z"/><path class="cls-1" d="m2615.88,641.49c-21.73-14.32-33.88-33.84-36.43-58.53h39.42c1.82,15.15,9.75,27.41,23.83,36.8,14.05,9.38,32.94,14.07,56.66,14.07,20.81,0,37.16-4.44,49.03-13.34,11.84-8.88,17.79-19.92,17.79-33.08,0-9.23-3.3-16.82-9.87-22.74-6.56-5.92-14.87-10.6-24.91-14.06-10.04-3.47-23.63-7.16-40.81-11.12-22.25-5.28-40.33-10.55-54.21-15.82-13.86-5.26-25.64-13.09-35.31-23.46-9.68-10.36-14.5-24.28-14.5-41.75,0-13.15,4.38-25.34,13.14-36.53,8.75-11.2,21.16-20.1,37.25-26.69,16.05-6.58,34.29-9.87,54.74-9.87,32.12,0,58.04,7.34,77.74,21.98,19.73,14.65,30.31,34.82,31.79,60.5h-38.35c-1.07-15.8-7.94-28.55-20.54-38.27-12.59-9.71-29.85-14.56-51.75-14.56-19.34,0-35.02,4.12-47.08,12.34-12.03,8.24-18.07,18.44-18.07,30.63,0,10.53,3.57,19.19,10.67,25.94,7.14,6.75,15.97,12.01,26.55,15.8,10.59,3.79,24.84,7.98,42.73,12.59,21.5,5.27,38.69,10.37,51.46,15.32,12.78,4.94,23.72,12.18,32.85,21.74,9.11,9.54,13.89,22.23,14.24,38.03,0,14.49-4.38,27.42-13.14,38.77-8.76,11.37-21,20.34-36.68,26.93-15.7,6.56-33.79,9.87-54.22,9.87-34.31,0-62.34-7.16-84.04-21.48Z"/><path class="cls-1" d="m2926.78,403.4c19.68-12.01,43.1-18.03,70.26-18.03s49.03,5.69,69.75,17.03c20.71,11.37,36.92,27.5,48.59,48.42,11.67,20.91,17.51,45.2,17.51,72.85s-5.83,52.03-17.51,73.11c-11.67,21.08-27.88,37.38-48.59,48.9-20.71,11.54-43.98,17.29-69.75,17.29s-50.16-6-70-18.03c-19.85-12.02-34.31-27.08-43.37-45.2v186.72h-36.04v-397.15h36.04v59.28c9.06-18.11,23.43-33.17,43.11-45.2Zm155.16,62.23c-9.24-16.29-21.87-28.71-37.88-37.29-16-8.55-34.13-12.85-54.32-12.85s-37.35,4.45-53.55,13.35c-16.2,8.89-29,21.56-38.39,38.03-9.4,16.46-14.12,35.55-14.12,57.29s4.72,40.84,14.12,57.31c9.39,16.46,22.19,29.13,38.39,38.02,16.2,8.89,34.03,13.34,53.55,13.34s38.31-4.36,54.32-13.09c16.02-8.73,28.64-21.41,37.88-38.03,9.23-16.63,13.86-35.99,13.86-58.05s-4.63-41.74-13.86-58.05Z"/><path class="cls-1" d="m3187.99,450.83c11.67-20.91,27.87-37.05,48.6-48.42,20.71-11.35,44.14-17.03,70.26-17.03s50.58,5.93,70.26,17.79c19.68,11.86,33.86,26.99,42.59,45.44v-59.28h36.58v269.71h-36.58v-59.77c-9.07,18.45-23.43,33.67-43.1,45.69-19.7,12.02-43.12,18.03-70.26,18.03s-49.03-5.75-69.75-17.29c-20.73-11.52-36.92-27.82-48.6-48.9-11.67-21.07-17.51-45.45-17.51-73.11s5.84-51.94,17.51-72.85Zm217.6,16.06c-9.4-16.47-22.2-29.15-38.41-38.03-16.19-8.89-34.05-13.35-53.55-13.35s-38.32,4.3-54.32,12.85c-16.03,8.57-28.66,21-37.88,37.29-9.23,16.31-13.85,35.66-13.85,58.05s4.62,41.42,13.85,58.05c9.22,16.63,21.85,29.31,37.88,38.03,16,8.73,34.13,13.09,54.32,13.09s37.35-4.45,53.55-13.34c16.2-8.9,29-21.56,38.41-38.02,9.4-16.47,14.11-35.57,14.11-57.31s-4.71-40.83-14.11-57.29Z"/><path class="cls-1" d="m3527.83,450.83c11.83-20.91,28.2-37.05,49.1-48.42,20.89-11.35,44.75-17.03,71.58-17.03,35.17,0,64.16,8.24,86.98,24.7,22.8,16.47,37.52,38.86,44.15,67.17h-39.18c-4.88-19.42-15.42-34.65-31.63-45.68-16.19-11.04-36.29-16.55-60.32-16.55-19.16,0-36.41,4.12-51.74,12.34-15.33,8.24-27.42,20.5-36.29,36.8-8.89,16.31-13.33,36.3-13.33,60.01s4.44,43.8,13.33,60.26c8.87,16.47,20.96,28.83,36.29,37.05,15.33,8.24,32.58,12.35,51.74,12.35,24.03,0,44.13-5.52,60.32-16.55,16.2-11.03,26.75-26.42,31.63-46.17h39.18c-6.62,27.65-21.43,49.89-44.4,66.68-23.01,16.79-51.92,25.19-86.73,25.19-26.83,0-50.69-5.69-71.58-17.05-20.9-11.36-37.28-27.49-49.1-48.41-11.85-20.91-17.78-45.35-17.78-73.35s5.93-52.44,17.78-73.35Z"/><path class="cls-1" d="m3876.69,513.7c-.54,7.1-.63,13.53-.28,19.58.13,2.44,2.2,4.28,4.64,4.28h190.42c11.17,0,20.3-8.9,20.54-20.08v-7.23c0-22.9-5.42-43.88-16.36-62.96-10.95-18.84-26.74-33.96-47.05-45.24-20.3-11.06-44.22-16.7-71.31-16.7-11.05,0-21.55.9-31.6,2.82-14.77,2.59-28.42,7.33-41.06,13.87-21.22,11.28-37.8,27.42-49.54,48.53-1.36,2.36-2.58,4.74-3.83,7.21-9.47,19.4-13.99,41.64-13.99,66.34,0,21.44,3.5,40.74,10.62,58,1.57,4.05,3.49,8,5.63,11.95,9.97,18.33,23.76,34.44,41.27,45.79,15.32,9.96,32.37,16.71,50.91,20.23,10.04,1.92,20.54,2.93,31.6,2.93,34.41,0,63.07-8.35,85.98-25.06,22.68-16.46,37.68-38.02,44.57-64.41h-38.7c-5.18,18.38-15.8,33.05-32.05,43.99-16.13,10.83-36.1,16.25-59.8,16.25-11.05,0-21.55-1.37-31.6-4.06-6.31-1.81-12.52-4.18-18.5-7-15.35-7.45-27.76-18.39-37.12-32.83-1.59-2.6-3.16-5.19-4.41-7.78-3.38-6.54-6.09-13.55-7.89-21.22-5.08-20.07-4.86-39.93-2.49-60.36.23-2.26.45-3.39.45-3.39,2.37-15.12,7.22-28.21,14.79-39.38,4.17-6.65,9.48-12.64,15.68-18.06,11.74-10.02,24.83-17.04,39.49-20.98,9.37-2.61,19.41-3.84,30.02-3.84,18.04,0,34.86,3.72,50.21,10.94,15.23,7.33,27.42,17.95,36.34,32.05,8.8,14.22,13.09,31.36,12.75,51.44h-173.66c-2.41,0-4.46,1.93-4.65,4.34Z"/></g><path id="Logo-2" class="cls-1" d="m679.1,671.74c0,36.48-29.57,66.05-66.05,66.05-12.92,0-24.96-3.72-35.14-10.13l-165.75,98.05c.07,1.28.12,2.56.12,3.86,0,36.48-29.57,66.05-66.05,66.05s-66.05-29.57-66.05-66.05c0-1.19.03-2.36.1-3.53l-155.73-91.06c17.93-12.08,28.29-31.43,31.06-51.91l155.21,90.76c10.24-6.52,22.38-10.31,35.42-10.31s24.96,3.72,35.14,10.13l165.75-98.05c-.07-1.28-.12-2.57-.12-3.86s.05-2.68.13-4L111.32,408.71c-10.15,6.36-22.15,10.06-35.02,10.06-36.48,0-66.05-29.57-66.05-66.05s29.57-66.05,66.05-66.05c13.21,0,25.5,3.89,35.82,10.57l168.13-96.67c-.05-1.01-.08-2.03-.08-3.05,0-36.48,29.57-66.05,66.05-66.05s66.05,29.57,66.05,66.05c0,1.13-.03,2.26-.09,3.38l155.75,90.6c-15.84,10.9-27.57,28.36-30.23,52.39l-155.94-90.71c-10.26,6.57-22.45,10.39-35.54,10.39s-25.5-3.89-35.82-10.57l-168.13,96.67c.05,1.01.08,2.03.08,3.05,0,1.34-.05,2.68-.13,4l435.8,259.03c10.15-6.36,22.15-10.06,35.02-10.06,36.48,0,66.05,29.57,66.05,66.05Zm-66.05-258.24c33.58,0,60.79-27.22,60.79-60.79s-27.22-60.79-60.79-60.79-60.79,27.22-60.79,60.79,27.22,60.79,60.79,60.79Zm-470.69,258.24c0-33.58-27.22-60.79-60.79-60.79s-60.79,27.22-60.79,60.79,27.22,60.79,60.79,60.79,60.79-27.22,60.79-60.79Zm15.11-37.08c1.38,0,2.78-.36,4.04-1.12l120.09-71.9c3.74-2.24,4.95-7.08,2.72-10.82-2.24-3.74-7.08-4.95-10.82-2.72l-120.09,71.9c-3.74,2.24-4.95,7.08-2.72,10.82,1.48,2.47,4.09,3.84,6.78,3.84Zm370.85-240.51l-120.09,71.9c-3.74,2.24-4.95,7.08-2.72,10.82,1.48,2.47,4.09,3.84,6.78,3.84,1.38,0,2.78-.36,4.04-1.12l120.09-71.9c3.74-2.24,4.95-7.08,2.72-10.82-2.24-3.74-7.09-4.95-10.82-2.72Z"/></g></svg>